<svg width="44" height="44" viewBox="0 0 44 44" fill="none" xmlns="http://www.w3.org/2000/svg">
<circle cx="22" cy="22" r="22" fill="#00C386"/>
<path d="M20.8546 12.8333V11.3055C20.8546 11.0016 20.9753 10.7102 21.1902 10.4953C21.4051 10.2804 21.6965 10.1597 22.0004 10.1597C22.3043 10.1597 22.5958 10.2804 22.8107 10.4953C23.0255 10.7102 23.1463 11.0016 23.1463 11.3055V12.8333C23.1463 13.1372 23.0255 13.4286 22.8107 13.6435C22.5958 13.8584 22.3043 13.9791 22.0004 13.9791C21.6965 13.9791 21.4051 13.8584 21.1902 13.6435C20.9753 13.4286 20.8546 13.1372 20.8546 12.8333ZM28.4935 21.9999C28.4935 23.2842 28.1127 24.5395 27.3992 25.6073C26.6857 26.6751 25.6717 27.5073 24.4852 27.9987C23.2988 28.4902 21.9932 28.6188 20.7337 28.3682C19.4742 28.1177 18.3172 27.4993 17.4092 26.5912C16.5011 25.6832 15.8827 24.5262 15.6321 23.2667C15.3816 22.0071 15.5102 20.7016 16.0016 19.5152C16.4931 18.3287 17.3253 17.3146 18.3931 16.6012C19.4609 15.8877 20.7162 15.5069 22.0004 15.5069C23.722 15.5087 25.3725 16.1933 26.5898 17.4106C27.8071 18.6279 28.4917 20.2784 28.4935 21.9999ZM26.2018 21.9999C26.2018 21.169 25.9554 20.3567 25.4938 19.6658C25.0321 18.9749 24.3759 18.4364 23.6082 18.1184C22.8405 17.8004 21.9958 17.7172 21.1808 17.8793C20.3658 18.0414 19.6172 18.4415 19.0296 19.0291C18.442 19.6167 18.0419 20.3653 17.8798 21.1803C17.7177 21.9953 17.8009 22.84 18.1189 23.6077C18.4369 24.3755 18.9754 25.0316 19.6663 25.4933C20.3572 25.9549 21.1695 26.2013 22.0004 26.2013C23.1143 26.2001 24.1822 25.757 24.9699 24.9694C25.7575 24.1817 26.2006 23.1138 26.2018 21.9999ZM14.6967 16.3176C14.8033 16.4242 14.9298 16.5087 15.0691 16.5664C15.2083 16.6241 15.3576 16.6538 15.5083 16.6538C15.6591 16.6538 15.8083 16.6241 15.9476 16.5664C16.0868 16.5087 16.2134 16.4242 16.32 16.3176C16.4266 16.211 16.5111 16.0844 16.5688 15.9452C16.6265 15.8059 16.6562 15.6567 16.6562 15.5059C16.6562 15.3552 16.6265 15.2059 16.5688 15.0667C16.5111 14.9274 16.4266 14.8009 16.32 14.6943L15.1741 13.5485C14.9589 13.3332 14.6669 13.2123 14.3625 13.2123C14.0581 13.2123 13.7661 13.3332 13.5509 13.5485C13.3356 13.7637 13.2147 14.0557 13.2147 14.3601C13.2147 14.6645 13.3356 14.9565 13.5509 15.1717L14.6967 16.3176ZM14.6967 27.6804L13.5509 28.8262C13.4443 28.9328 13.3597 29.0594 13.3021 29.1986C13.2444 29.3379 13.2147 29.4871 13.2147 29.6379C13.2147 29.7886 13.2444 29.9379 13.3021 30.0771C13.3597 30.2164 13.4443 30.3429 13.5509 30.4495C13.7661 30.6648 14.0581 30.7857 14.3625 30.7857C14.5132 30.7857 14.6625 30.756 14.8018 30.6983C14.941 30.6406 15.0675 30.5561 15.1741 30.4495L16.32 29.3037C16.5352 29.0884 16.6562 28.7965 16.6562 28.492C16.6562 28.1876 16.5352 27.8957 16.32 27.6804C16.1047 27.4652 15.8128 27.3442 15.5083 27.3442C15.2039 27.3442 14.912 27.4652 14.6967 27.6804ZM28.4935 16.6527C28.644 16.6528 28.7931 16.6233 28.9322 16.5658C29.0713 16.5083 29.1977 16.4239 29.3042 16.3176L30.45 15.1717C30.5566 15.0651 30.6411 14.9386 30.6988 14.7994C30.7565 14.6601 30.7862 14.5108 30.7862 14.3601C30.7862 14.2094 30.7565 14.0601 30.6988 13.9208C30.6411 13.7816 30.5566 13.6551 30.45 13.5485C30.3434 13.4419 30.2169 13.3573 30.0776 13.2997C29.9384 13.242 29.7891 13.2123 29.6384 13.2123C29.4876 13.2123 29.3384 13.242 29.1991 13.2997C29.0599 13.3573 28.9333 13.4419 28.8267 13.5485L27.6809 14.6943C27.5197 14.8546 27.4098 15.0592 27.3652 15.2821C27.3206 15.5049 27.3433 15.7361 27.4304 15.946C27.5175 16.156 27.6651 16.3353 27.8544 16.4611C28.0437 16.587 28.2662 16.6537 28.4935 16.6527ZM29.3042 27.6823C29.0889 27.4671 28.797 27.3461 28.4925 27.3461C28.1881 27.3461 27.8962 27.4671 27.6809 27.6823C27.4656 27.8976 27.3447 28.1895 27.3447 28.494C27.3447 28.7984 27.4656 29.0903 27.6809 29.3056L28.8267 30.4514C29.042 30.6667 29.3339 30.7876 29.6384 30.7876C29.9428 30.7876 30.2347 30.6667 30.45 30.4514C30.6653 30.2362 30.7862 29.9442 30.7862 29.6398C30.7862 29.3354 30.6653 29.0434 30.45 28.8282L29.3042 27.6823ZM13.9796 21.9999C13.9796 21.6961 13.8589 21.4046 13.644 21.1897C13.4291 20.9748 13.1377 20.8541 12.8338 20.8541H11.306C11.0021 20.8541 10.7106 20.9748 10.4958 21.1897C10.2809 21.4046 10.1602 21.6961 10.1602 21.9999C10.1602 22.3038 10.2809 22.5953 10.4958 22.8102C10.7106 23.0251 11.0021 23.1458 11.306 23.1458H12.8338C13.1377 23.1458 13.4291 23.0251 13.644 22.8102C13.8589 22.5953 13.9796 22.3038 13.9796 21.9999ZM22.0004 30.0208C21.6965 30.0208 21.4051 30.1415 21.1902 30.3564C20.9753 30.5713 20.8546 30.8627 20.8546 31.1666V32.6944C20.8546 32.9983 20.9753 33.2897 21.1902 33.5046C21.4051 33.7195 21.6965 33.8402 22.0004 33.8402C22.3043 33.8402 22.5958 33.7195 22.8107 33.5046C23.0255 33.2897 23.1463 32.9983 23.1463 32.6944V31.1666C23.1463 30.8627 23.0255 30.5713 22.8107 30.3564C22.5958 30.1415 22.3043 30.0208 22.0004 30.0208ZM32.6949 20.8541H31.1671C30.8632 20.8541 30.5718 20.9748 30.3569 21.1897C30.142 21.4046 30.0213 21.6961 30.0213 21.9999C30.0213 22.3038 30.142 22.5953 30.3569 22.8102C30.5718 23.0251 30.8632 23.1458 31.1671 23.1458H32.6949C32.9988 23.1458 33.2902 23.0251 33.5051 22.8102C33.72 22.5953 33.8407 22.3038 33.8407 21.9999C33.8407 21.6961 33.72 21.4046 33.5051 21.1897C33.2902 20.9748 32.9988 20.8541 32.6949 20.8541Z" fill="white"/>
</svg>
