<svg width="26" height="26" viewBox="0 0 26 26" fill="none" xmlns="http://www.w3.org/2000/svg">
<path d="M11.8546 3.83328V2.3055C11.8546 2.00161 11.9753 1.71016 12.1902 1.49527C12.4051 1.28039 12.6965 1.15967 13.0004 1.15967C13.3043 1.15967 13.5958 1.28039 13.8107 1.49527C14.0255 1.71016 14.1463 2.00161 14.1463 2.3055V3.83328C14.1463 4.13717 14.0255 4.42862 13.8107 4.64351C13.5958 4.85839 13.3043 4.97911 13.0004 4.97911C12.6965 4.97911 12.4051 4.85839 12.1902 4.64351C11.9753 4.42862 11.8546 4.13717 11.8546 3.83328ZM19.4935 12.9999C19.4935 14.2842 19.1127 15.5395 18.3992 16.6073C17.6857 17.6751 16.6717 18.5073 15.4852 18.9987C14.2988 19.4902 12.9932 19.6188 11.7337 19.3682C10.4742 19.1177 9.31722 18.4993 8.40915 17.5912C7.50108 16.6832 6.88268 15.5262 6.63214 14.2667C6.38161 13.0071 6.51019 11.7016 7.00163 10.5152C7.49308 9.32871 8.32531 8.31463 9.39309 7.60117C10.4609 6.8877 11.7162 6.50689 13.0004 6.50689C14.722 6.50866 16.3725 7.19332 17.5898 8.41062C18.8071 9.62792 19.4917 11.2784 19.4935 12.9999ZM17.2018 12.9999C17.2018 12.169 16.9554 11.3567 16.4938 10.6658C16.0321 9.97486 15.3759 9.43636 14.6082 9.11837C13.8405 8.80038 12.9958 8.71717 12.1808 8.87929C11.3658 9.0414 10.6172 9.44154 10.0296 10.0291C9.44203 10.6167 9.04189 11.3653 8.87977 12.1803C8.71766 12.9953 8.80086 13.84 9.11886 14.6077C9.43685 15.3755 9.97535 16.0316 10.6663 16.4933C11.3572 16.9549 12.1695 17.2013 13.0004 17.2013C14.1143 17.2001 15.1822 16.757 15.9699 15.9694C16.7575 15.1817 17.2006 14.1138 17.2018 12.9999ZM5.6967 7.31757C5.80329 7.42415 5.92982 7.5087 6.06908 7.56638C6.20834 7.62407 6.3576 7.65376 6.50833 7.65376C6.65907 7.65376 6.80833 7.62407 6.94759 7.56638C7.08685 7.5087 7.21338 7.42415 7.31997 7.31757C7.42655 7.21098 7.5111 7.08445 7.56878 6.94519C7.62646 6.80593 7.65615 6.65667 7.65615 6.50594C7.65615 6.3552 7.62646 6.20594 7.56878 6.06668C7.5111 5.92742 7.42655 5.80089 7.31997 5.6943L6.17413 4.54847C5.95887 4.33321 5.66692 4.21228 5.3625 4.21228C5.05808 4.21228 4.76613 4.33321 4.55087 4.54847C4.33561 4.76373 4.21468 5.05568 4.21468 5.3601C4.21468 5.66452 4.33561 5.95648 4.55087 6.17173L5.6967 7.31757ZM5.6967 18.6804L4.55087 19.8262C4.44428 19.9328 4.35974 20.0594 4.30205 20.1986C4.24437 20.3379 4.21468 20.4871 4.21468 20.6379C4.21468 20.7886 4.24437 20.9379 4.30205 21.0771C4.35974 21.2164 4.44428 21.3429 4.55087 21.4495C4.76613 21.6648 5.05808 21.7857 5.3625 21.7857C5.51323 21.7857 5.66249 21.756 5.80175 21.6983C5.94101 21.6406 6.06755 21.5561 6.17413 21.4495L7.31997 20.3037C7.53522 20.0884 7.65615 19.7965 7.65615 19.492C7.65615 19.1876 7.53522 18.8957 7.31997 18.6804C7.10471 18.4652 6.81275 18.3442 6.50833 18.3442C6.20391 18.3442 5.91196 18.4652 5.6967 18.6804ZM19.4935 7.65272C19.644 7.65284 19.7931 7.6233 19.9322 7.5658C20.0713 7.50829 20.1977 7.42394 20.3042 7.31757L21.45 6.17173C21.5566 6.06515 21.6411 5.93861 21.6988 5.79935C21.7565 5.66009 21.7862 5.51084 21.7862 5.3601C21.7862 5.20937 21.7565 5.06011 21.6988 4.92085C21.6411 4.78159 21.5566 4.65506 21.45 4.54847C21.3434 4.44189 21.2169 4.35734 21.0776 4.29965C20.9384 4.24197 20.7891 4.21228 20.6384 4.21228C20.4876 4.21228 20.3384 4.24197 20.1991 4.29965C20.0599 4.35734 19.9333 4.44189 19.8267 4.54847L18.6809 5.6943C18.5197 5.85457 18.4098 6.05916 18.3652 6.28205C18.3206 6.50495 18.3433 6.73607 18.4304 6.94603C18.5175 7.15599 18.6651 7.33529 18.8544 7.46113C19.0437 7.58697 19.2662 7.65366 19.4935 7.65272ZM20.3042 18.6823C20.0889 18.4671 19.797 18.3461 19.4925 18.3461C19.1881 18.3461 18.8962 18.4671 18.6809 18.6823C18.4656 18.8976 18.3447 19.1895 18.3447 19.494C18.3447 19.7984 18.4656 20.0903 18.6809 20.3056L19.8267 21.4514C20.042 21.6667 20.3339 21.7876 20.6384 21.7876C20.9428 21.7876 21.2347 21.6667 21.45 21.4514C21.6653 21.2362 21.7862 20.9442 21.7862 20.6398C21.7862 20.3354 21.6653 20.0434 21.45 19.8282L20.3042 18.6823ZM4.9796 12.9999C4.9796 12.6961 4.85888 12.4046 4.64399 12.1897C4.42911 11.9748 4.13766 11.8541 3.83377 11.8541H2.30599C2.0021 11.8541 1.71065 11.9748 1.49576 12.1897C1.28088 12.4046 1.16016 12.6961 1.16016 12.9999C1.16016 13.3038 1.28088 13.5953 1.49576 13.8102C1.71065 14.0251 2.0021 14.1458 2.30599 14.1458H3.83377C4.13766 14.1458 4.42911 14.0251 4.64399 13.8102C4.85888 13.5953 4.9796 13.3038 4.9796 12.9999ZM13.0004 21.0208C12.6965 21.0208 12.4051 21.1415 12.1902 21.3564C11.9753 21.5713 11.8546 21.8627 11.8546 22.1666V23.6944C11.8546 23.9983 11.9753 24.2897 12.1902 24.5046C12.4051 24.7195 12.6965 24.8402 13.0004 24.8402C13.3043 24.8402 13.5958 24.7195 13.8107 24.5046C14.0255 24.2897 14.1463 23.9983 14.1463 23.6944V22.1666C14.1463 21.8627 14.0255 21.5713 13.8107 21.3564C13.5958 21.1415 13.3043 21.0208 13.0004 21.0208ZM23.6949 11.8541H22.1671C21.8632 11.8541 21.5718 11.9748 21.3569 12.1897C21.142 12.4046 21.0213 12.6961 21.0213 12.9999C21.0213 13.3038 21.142 13.5953 21.3569 13.8102C21.5718 14.0251 21.8632 14.1458 22.1671 14.1458H23.6949C23.9988 14.1458 24.2902 14.0251 24.5051 13.8102C24.72 13.5953 24.8407 13.3038 24.8407 12.9999C24.8407 12.6961 24.72 12.4046 24.5051 12.1897C24.2902 11.9748 23.9988 11.8541 23.6949 11.8541Z" fill="white"/>
</svg>
