<svg width="211" height="77" viewBox="0 0 211 77" fill="none" xmlns="http://www.w3.org/2000/svg">
<g clip-path="url(#clip0_212_334)">
<path d="M41.5582 14.02C52.5558 25.0149 50.7412 44.6495 50.7412 44.6495C50.7412 44.6495 31.1016 46.4589 20.1041 35.4688C9.10642 24.4739 10.921 4.83929 10.921 4.83929C10.921 4.83929 30.5606 3.02995 41.5582 14.02Z" fill="#5FBA27"/>
<path d="M28.3438 23.2629C43.8946 23.2629 56.5009 38.4269 56.5009 38.4269C56.5009 38.4269 43.8946 53.5909 28.3438 53.5909C12.793 53.5909 0.181885 38.4317 0.181885 38.4317C0.181885 38.4317 12.7882 23.2678 28.339 23.2678L28.3438 23.2629Z" fill="#5FBA27"/>
<path d="M81.4362 38.2832H33.0742V76.715H81.4362V38.2832Z" fill="white"/>
<path d="M68.0011 47.8517H46.7959V66.778H68.0011V47.8517Z" fill="#9E9E9E"/>
<path d="M60.9632 76.7104L60.4653 75.6045C60.0152 74.6041 59.7854 73.5415 59.7854 72.4357C59.7854 69.5446 61.3798 66.9216 63.9508 65.5909C63.97 65.4185 63.97 65.2894 63.97 65.1553C63.97 56.8888 70.6968 50.1684 78.9605 50.1684C85.113 50.1684 90.5755 53.8541 92.8737 59.5646L92.8599 59.5741L92.9119 59.6268H93.0466L93.0986 59.6411C98.6337 59.7943 103.091 64.3559 103.091 69.894C103.091 72.0863 102.406 74.1781 101.114 75.9443L100.549 76.715H60.968L60.9632 76.7104Z" fill="#5FBA27"/>
<path d="M21.7844 38.2834H93.8552L85.7923 32.5012L57.4488 13.7184L29.1098 33.1282L21.7844 38.2834Z" fill="black"/>
<path d="M54.8685 18.9646H44.929V28.667H54.8685V18.9646Z" fill="#9E9E9E"/>
<path d="M64.5158 0H35.6069V18.6726H64.5158V0Z" fill="white"/>
<path d="M89.3353 16.7722C91.4116 16.7722 93.094 15.0899 93.094 13.0147C93.094 10.9396 91.4116 9.25726 89.3353 9.25726C87.2597 9.25726 85.5774 10.9396 85.5774 13.0147C85.5774 15.0899 87.2597 16.7722 89.3353 16.7722Z" fill="#9E9E9E"/>
<path d="M14.4491 27.0348C9.83366 16.6144 10.9205 4.83929 10.9205 4.83929C10.9205 4.83929 24.6759 3.57084 35.6112 9.60195" stroke="black" stroke-linejoin="round"/>
<path d="M29.6361 23.2629L19.5864 13.2159" stroke="black" stroke-linecap="round" stroke-linejoin="round"/>
<path d="M33.0453 53.1649C31.5085 53.4569 29.9237 53.6197 28.3102 53.6197C12.7594 53.6197 0.153076 38.4556 0.153076 38.4556C0.153076 38.4556 12.7594 23.2917 28.3102 23.2917C32.375 23.2917 36.2436 24.3304 39.7339 25.8621" stroke="black" stroke-linejoin="round"/>
<path d="M23.3642 38.2498H12.2039" stroke="black" stroke-linecap="round" stroke-linejoin="round"/>
<path d="M89.3352 16.9301C91.498 16.9301 93.2515 15.1772 93.2515 13.0147C93.2515 10.8523 91.498 9.09924 89.3352 9.09924C87.1724 9.09924 85.4189 10.8523 85.4189 13.0147C85.4189 15.1772 87.1724 16.9301 89.3352 16.9301Z" stroke="black" stroke-linejoin="round"/>
<path d="M89.3352 0.358948V9.09449" stroke="black" stroke-linecap="round" stroke-linejoin="round"/>
<path d="M93.123 15.3697L100.692 19.7351" stroke="black" stroke-linecap="round" stroke-linejoin="round"/>
<path d="M85.5438 15.3697L77.979 19.7351" stroke="black" stroke-linecap="round" stroke-linejoin="round"/>
<path d="M89.3352 38.4316V54.103" stroke="black" stroke-linecap="round" stroke-linejoin="round"/>
<path d="M89.3352 16.9302V35.0428" stroke="black" stroke-linecap="round" stroke-linejoin="round"/>
<path d="M44.7273 22.4348L21.7842 38.2833H57.6879H93.8551L64.5154 18.6725" stroke="black" stroke-linecap="round" stroke-linejoin="round"/>
<path d="M33.2751 76.7104V38.2832H81.4355V49.6227" stroke="black" stroke-linecap="round" stroke-linejoin="round"/>
<path d="M62.1023 66.7828H46.7957V47.8517H68.0008V54.2897" stroke="black" stroke-linecap="round" stroke-linejoin="round"/>
<path d="M60.9632 76.7104L60.4652 75.6045C60.0152 74.6041 59.7854 73.5415 59.7854 72.4357C59.7854 69.5446 61.3797 66.9216 63.9508 65.5909C63.9699 65.4185 63.9699 65.2894 63.9699 65.1553C63.9699 56.8888 70.6968 50.1684 78.9606 50.1684C85.1131 50.1684 90.5756 53.8541 92.8738 59.5646L92.8592 59.5741L92.912 59.6268H93.0467L93.0987 59.6411C98.6338 59.7943 103.091 64.3559 103.091 69.894C103.091 72.0863 102.406 74.1781 101.114 75.9443L100.549 76.715H60.9679L60.9632 76.7104Z" stroke="black" stroke-linejoin="round"/>
<path d="M27.5491 76.7104H104.838" stroke="black" stroke-width="2.52" stroke-linecap="round" stroke-linejoin="round"/>
<path d="M64.4678 0.358948H35.6882V18.7395H64.4678V0.358948Z" stroke="black" stroke-linecap="round" stroke-linejoin="round"/>
<path d="M54.9734 0.358948H44.7275V28.6813H54.9734V0.358948Z" stroke="black" stroke-linecap="round" stroke-linejoin="round"/>
<path d="M35.6882 9.09454H64.4677" stroke="black" stroke-linecap="round" stroke-linejoin="round"/>
<path d="M56.1798 28.6813H43.5256" stroke="black" stroke-width="2.52" stroke-linecap="round" stroke-linejoin="round"/>
<path d="M68.7097 76.0448V70.8465" stroke="black" stroke-linecap="round" stroke-linejoin="round"/>
<path d="M75.3936 76.7104V59.5645" stroke="black" stroke-linecap="round" stroke-linejoin="round"/>
<path d="M87.5688 76.0448V68.099" stroke="black" stroke-linecap="round" stroke-linejoin="round"/>
<path d="M102.249 46.1973V29.5095H113.888V32.7852H106.284V36.2074H113.293V39.4912H106.284V42.9217H113.888V46.1973H102.249ZM131.567 35.5556H127.491C127.437 35.1373 127.325 34.7598 127.157 34.423C126.989 34.0862 126.766 33.7983 126.489 33.5593C126.211 33.3203 125.883 33.1382 125.502 33.0133C125.127 32.8829 124.712 32.8178 124.255 32.8178C123.446 32.8178 122.748 33.016 122.161 33.4126C121.58 33.8092 121.131 34.3823 120.816 35.1319C120.506 35.8815 120.351 36.7887 120.351 37.8534C120.351 38.9616 120.509 39.8905 120.824 40.6402C121.144 41.3844 121.593 41.9466 122.169 42.3268C122.75 42.7017 123.438 42.8891 124.231 42.8891C124.677 42.8891 125.081 42.832 125.445 42.718C125.815 42.6039 126.138 42.4382 126.416 42.2209C126.698 41.9982 126.929 41.7293 127.108 41.4142C127.293 41.0937 127.421 40.7325 127.491 40.3305L131.567 40.3549C131.495 41.0937 131.281 41.8216 130.922 42.5387C130.569 43.2557 130.083 43.9103 129.464 44.5025C128.844 45.0891 128.089 45.5563 127.197 45.904C126.312 46.2516 125.296 46.4255 124.15 46.4255C122.639 46.4255 121.286 46.0941 120.091 45.4314C118.901 44.7632 117.961 43.7908 117.271 42.5143C116.581 41.2377 116.236 39.6841 116.236 37.8534C116.236 36.0173 116.586 34.461 117.287 33.1844C117.988 31.9079 118.936 30.9382 120.131 30.2755C121.326 29.6128 122.666 29.2814 124.15 29.2814C125.16 29.2814 126.095 29.4226 126.953 29.7051C127.812 29.9821 128.567 30.3896 129.219 30.9273C129.871 31.4597 130.401 32.1143 130.808 32.8911C131.215 33.6679 131.469 34.556 131.567 35.5556ZM149.629 37.8534C149.629 39.6895 149.277 41.2459 148.57 42.5224C147.864 43.7989 146.907 44.7686 145.701 45.4314C144.501 46.0941 143.153 46.4255 141.658 46.4255C140.159 46.4255 138.809 46.0914 137.607 45.4232C136.407 44.755 135.453 43.7854 134.747 42.5143C134.046 41.2377 133.696 39.6841 133.696 37.8534C133.696 36.0173 134.046 34.461 134.747 33.1844C135.453 31.9079 136.407 30.9382 137.607 30.2755C138.809 29.6128 140.159 29.2814 141.658 29.2814C143.153 29.2814 144.501 29.6128 145.701 30.2755C146.907 30.9382 147.864 31.9079 148.57 33.1844C149.277 34.461 149.629 36.0173 149.629 37.8534ZM145.506 37.8534C145.506 36.767 145.35 35.849 145.041 35.0993C144.737 34.3496 144.296 33.782 143.72 33.3963C143.15 33.0106 142.462 32.8178 141.658 32.8178C140.86 32.8178 140.173 33.0106 139.597 33.3963C139.02 33.782 138.578 34.3496 138.268 35.0993C137.964 35.849 137.812 36.767 137.812 37.8534C137.812 38.9399 137.964 39.8579 138.268 40.6076C138.578 41.3572 139.02 41.9249 139.597 42.3105C140.173 42.6962 140.86 42.8891 141.658 42.8891C142.462 42.8891 143.15 42.6962 143.72 42.3105C144.296 41.9249 144.737 41.3572 145.041 40.6076C145.35 39.8579 145.506 38.9399 145.506 37.8534Z" fill="black"/>
<path d="M161.843 39.0122C161.781 38.7841 161.69 38.5831 161.571 38.4092C161.452 38.2318 161.305 38.0815 161.131 37.9583C160.957 37.8352 160.758 37.7429 160.534 37.6813C160.309 37.6161 160.062 37.5835 159.795 37.5835C159.254 37.5835 158.787 37.7139 158.392 37.9746C158.001 38.2354 157.699 38.6156 157.485 39.1154C157.271 39.6116 157.164 40.2145 157.164 40.9244C157.164 41.6377 157.268 42.2462 157.474 42.7495C157.681 43.253 157.98 43.6368 158.371 43.9012C158.762 44.1656 159.237 44.2977 159.795 44.2977C160.287 44.2977 160.703 44.2181 161.044 44.0587C161.388 43.8957 161.649 43.6658 161.827 43.3688C162.004 43.0718 162.093 42.7224 162.093 42.3204L162.592 42.3802H159.886V40.4192H164.685V41.8913C164.685 42.8872 164.473 43.74 164.049 44.4498C163.629 45.1597 163.049 45.7047 162.31 46.0849C161.575 46.4652 160.729 46.6553 159.772 46.6553C158.711 46.6553 157.779 46.4253 156.975 45.9654C156.171 45.5055 155.543 44.85 155.094 43.999C154.645 43.1443 154.421 42.1303 154.421 40.9569C154.421 40.0443 154.556 39.2349 154.828 38.5288C155.1 37.8189 155.478 37.2177 155.964 36.7252C156.453 36.2327 157.017 35.8597 157.659 35.6062C158.304 35.3527 158.997 35.226 159.74 35.226C160.385 35.226 160.984 35.3183 161.539 35.503C162.097 35.6877 162.589 35.9484 163.016 36.2852C163.448 36.622 163.797 37.0222 164.065 37.4857C164.334 37.9493 164.5 38.4581 164.565 39.0122H161.843ZM166.27 46.5032V35.378H170.866C171.699 35.378 172.419 35.5283 173.024 35.8289C173.632 36.1259 174.102 36.5532 174.431 37.1109C174.76 37.665 174.926 38.3223 174.926 39.0828C174.926 39.8542 174.757 40.5096 174.42 41.0493C174.083 41.5853 173.605 41.9945 172.986 42.2769C172.367 42.5558 171.633 42.6952 170.785 42.6952H167.878V40.5766H170.285C170.691 40.5766 171.029 40.5242 171.302 40.4192C171.576 40.3105 171.785 40.1475 171.926 39.9302C172.067 39.7093 172.138 39.4268 172.138 39.0828C172.138 38.7388 172.067 38.4545 171.926 38.2299C171.785 38.0018 171.576 37.8316 171.302 37.7193C171.026 37.6034 170.687 37.5455 170.285 37.5455H168.96V46.5032H166.27ZM172.535 41.4187L175.306 46.5032H172.372L169.655 41.4187H172.535ZM178.808 46.5032H175.917L179.672 35.378H183.252L187.007 46.5032H184.116L181.503 38.181H181.416L178.808 46.5032ZM178.422 42.1249H184.464V44.1673H178.422V42.1249ZM197.676 35.378V46.5032H195.394L190.966 40.0823H190.895V46.5032H188.205V35.378H190.52L194.9 41.788H194.991V35.378H197.676ZM199.003 37.5618V35.378H208.409V37.5618H205.034V46.5032H202.382V37.5618H199.003Z" fill="#2A952B"/>
<path d="M106.684 57.6701V53.7763H109.18V54.3676H107.39V55.4247H109.009V56.016H107.39V57.6701H106.684ZM109.983 57.6701V53.7763H111.444C111.743 53.7763 111.994 53.8283 112.196 53.9322C112.401 54.0361 112.555 54.1819 112.659 54.3695C112.764 54.5559 112.817 54.7732 112.817 55.0217C112.817 55.2714 112.763 55.4881 112.657 55.6719C112.552 55.8544 112.396 55.9957 112.191 56.0959C111.986 56.1947 111.734 56.2442 111.435 56.2442H110.394V55.6585H111.339C111.514 55.6585 111.657 55.6345 111.769 55.5863C111.881 55.5369 111.963 55.4653 112.016 55.3715C112.071 55.2764 112.098 55.1598 112.098 55.0217C112.098 54.8835 112.071 54.7656 112.016 54.668C111.962 54.5692 111.879 54.4944 111.767 54.4437C111.656 54.3917 111.512 54.3657 111.335 54.3657H110.689V57.6701H109.983ZM111.995 55.9058L112.959 57.6701H112.172L111.225 55.9058H111.995ZM113.627 57.6701V53.7763H116.16V54.3676H114.333V55.4247H116.029V56.016H114.333V57.0788H116.176V57.6701H113.627ZM117.041 57.6701V53.7763H119.574V54.3676H117.746V55.4247H119.442V56.016H117.746V57.0788H119.589V57.6701H117.041ZM121.943 57.6701V53.7763H124.476V54.3676H122.649V55.4247H124.345V56.016H122.649V57.0788H124.492V57.6701H121.943ZM128.558 53.7763V57.6701H127.93L126.094 55.0178H126.062V57.6701H125.357V53.7763H125.988L127.822 56.4305H127.855V53.7763H128.558ZM129.487 57.6701V53.7763H132.02V54.3676H130.193V55.4247H131.889V56.016H130.193V57.0788H132.035V57.6701H129.487ZM132.9 57.6701V53.7763H134.361C134.661 53.7763 134.912 53.8283 135.114 53.9322C135.319 54.0361 135.472 54.1819 135.576 54.3695C135.681 54.5559 135.734 54.7732 135.734 55.0217C135.734 55.2714 135.681 55.4881 135.574 55.6719C135.469 55.8544 135.314 55.9957 135.108 56.0959C134.903 56.1947 134.651 56.2442 134.351 56.2442H133.311V55.6585H134.257C134.431 55.6585 134.575 55.6345 134.687 55.5863C134.798 55.5369 134.88 55.4653 134.934 55.3715C134.988 55.2764 135.016 55.1598 135.016 55.0217C135.016 54.8835 134.988 54.7656 134.934 54.668C134.879 54.5692 134.796 54.4944 134.684 54.4437C134.573 54.3917 134.429 54.3657 134.253 54.3657H133.606V57.6701H132.9ZM134.912 55.9058L135.877 57.6701H135.09L134.143 55.9058H134.912ZM139.154 55.0197C139.122 54.9171 139.078 54.8252 139.022 54.7441C138.968 54.6616 138.902 54.5913 138.825 54.533C138.748 54.4747 138.661 54.431 138.562 54.4018C138.463 54.3714 138.355 54.3562 138.239 54.3562C138.03 54.3562 137.843 54.4088 137.679 54.514C137.516 54.6192 137.387 54.7738 137.294 54.9779C137.201 55.1807 137.155 55.4279 137.155 55.7194C137.155 56.0134 137.201 56.2626 137.294 56.4666C137.386 56.6707 137.515 56.8259 137.679 56.9324C137.845 57.0377 138.036 57.0902 138.254 57.0902C138.451 57.0902 138.623 57.0522 138.767 56.9762C138.913 56.9001 139.025 56.7924 139.104 56.6529C139.183 56.5123 139.222 56.3475 139.222 56.1586L139.382 56.1833H138.324V55.6319H139.905V56.0996C139.905 56.433 139.834 56.7214 139.692 56.9648C139.549 57.2081 139.354 57.3957 139.106 57.5275C138.858 57.6581 138.572 57.7234 138.25 57.7234C137.891 57.7234 137.576 57.6429 137.305 57.4819C137.035 57.3197 136.824 57.0896 136.672 56.7918C136.52 56.4926 136.445 56.1377 136.445 55.727C136.445 55.4126 136.49 55.1319 136.579 54.8847C136.669 54.6376 136.794 54.4278 136.955 54.2554C137.116 54.0818 137.305 53.9499 137.522 53.86C137.738 53.7687 137.974 53.7231 138.23 53.7231C138.445 53.7231 138.646 53.7547 138.832 53.8182C139.018 53.8803 139.184 53.969 139.328 54.0843C139.474 54.1997 139.594 54.3366 139.688 54.495C139.782 54.6535 139.843 54.8284 139.872 55.0197H139.154ZM140.335 53.7763H141.131L142.085 55.4988H142.123L143.075 53.7763H143.872L142.456 56.2176V57.6701H141.752V56.2176L140.335 53.7763ZM146.022 55.44V56.0065H144.268V55.44H146.022ZM146.937 57.6701V53.7763H149.47V54.3676H147.642V55.4247H149.339V56.016H147.642V57.0788H149.485V57.6701H146.937ZM150.35 57.6701V53.7763H152.846V54.3676H151.056V55.4247H152.674V56.016H151.056V57.6701H150.35ZM153.649 57.6701V53.7763H156.144V54.3676H154.354V55.4247H155.972V56.016H154.354V57.6701H153.649ZM157.653 53.7763V57.6701H156.947V53.7763H157.653ZM161.912 55.0901H161.2C161.18 54.9735 161.143 54.8702 161.088 54.7802C161.033 54.6889 160.966 54.6116 160.884 54.5482C160.803 54.4849 160.71 54.4373 160.607 54.4056C160.504 54.3727 160.393 54.3562 160.274 54.3562C160.062 54.3562 159.874 54.4095 159.711 54.5159C159.548 54.6211 159.42 54.7758 159.327 54.9798C159.235 55.1827 159.188 55.4304 159.188 55.7232C159.188 56.0211 159.235 56.272 159.327 56.4761C159.421 56.6789 159.549 56.8323 159.711 56.9362C159.874 57.0389 160.062 57.0902 160.272 57.0902C160.388 57.0902 160.498 57.075 160.6 57.0446C160.702 57.0129 160.794 56.9667 160.875 56.9058C160.958 56.845 161.026 56.7702 161.082 56.6815C161.14 56.5927 161.179 56.4913 161.2 56.3773L161.912 56.381C161.885 56.5661 161.827 56.7397 161.739 56.902C161.651 57.0643 161.536 57.2075 161.394 57.3317C161.252 57.4547 161.086 57.551 160.896 57.6207C160.706 57.6892 160.495 57.7234 160.263 57.7234C159.92 57.7234 159.615 57.6441 159.346 57.4857C159.077 57.3272 158.865 57.0985 158.711 56.7993C158.556 56.5002 158.479 56.1415 158.479 55.7232C158.479 55.3037 158.557 54.9449 158.713 54.6471C158.869 54.348 159.081 54.1192 159.349 53.9607C159.619 53.8023 159.922 53.7231 160.263 53.7231C160.479 53.7231 160.681 53.7535 160.867 53.8143C161.054 53.8752 161.22 53.9645 161.365 54.0824C161.511 54.1991 161.632 54.3422 161.725 54.5121C161.82 54.6807 161.882 54.8733 161.912 55.0901ZM163.424 53.7763V57.6701H162.718V53.7763H163.424ZM164.348 57.6701V53.7763H166.881V54.3676H165.054V55.4247H166.75V56.016H165.054V57.0788H166.897V57.6701H164.348ZM170.963 53.7763V57.6701H170.335L168.5 55.0178H168.467V57.6701H167.762V53.7763H168.393L170.227 56.4305H170.261V53.7763H170.963ZM171.721 54.3676V53.7763H174.829V54.3676H173.624V57.6701H172.924V54.3676H171.721ZM179.532 53.7763H180.237V56.3202C180.237 56.5991 180.172 56.8443 180.04 57.056C179.909 57.2677 179.726 57.4331 179.489 57.5523C179.251 57.6701 178.974 57.7291 178.658 57.7291C178.339 57.7291 178.062 57.6701 177.825 57.5523C177.587 57.4331 177.404 57.2677 177.273 57.056C177.142 56.8443 177.077 56.5991 177.077 56.3202V53.7763H177.782V56.2613C177.782 56.4235 177.818 56.568 177.89 56.6948C177.961 56.8215 178.063 56.921 178.193 56.9933C178.324 57.0643 178.479 57.0998 178.658 57.0998C178.836 57.0998 178.991 57.0643 179.121 56.9933C179.254 56.921 179.355 56.8215 179.426 56.6948C179.497 56.568 179.532 56.4235 179.532 56.2613V53.7763ZM181.166 57.6701V53.7763H182.626C182.925 53.7763 183.176 53.8321 183.379 53.9436C183.583 54.0552 183.737 54.2085 183.841 54.4037C183.946 54.5977 183.999 54.8182 183.999 55.0654C183.999 55.3151 183.946 55.5369 183.841 55.7308C183.736 55.9247 183.581 56.0775 183.375 56.1891C183.17 56.2993 182.917 56.3544 182.617 56.3544H181.648V55.7746H182.521C182.696 55.7746 182.839 55.7441 182.951 55.6833C183.063 55.6224 183.145 55.5388 183.198 55.4323C183.253 55.3258 183.28 55.2035 183.28 55.0654C183.28 54.9272 183.253 54.8055 183.198 54.7003C183.145 54.5951 183.062 54.5134 182.95 54.4551C182.838 54.3955 182.694 54.3657 182.517 54.3657H181.871V57.6701H181.166ZM187.382 55.0197C187.35 54.9171 187.307 54.8252 187.251 54.7441C187.196 54.6616 187.13 54.5913 187.053 54.533C186.977 54.4747 186.889 54.431 186.79 54.4018C186.691 54.3714 186.584 54.3562 186.467 54.3562C186.258 54.3562 186.072 54.4088 185.908 54.514C185.744 54.6192 185.616 54.7738 185.522 54.9779C185.429 55.1807 185.383 55.4279 185.383 55.7194C185.383 56.0134 185.429 56.2626 185.522 56.4666C185.614 56.6707 185.743 56.8259 185.908 56.9324C186.073 57.0377 186.264 57.0902 186.482 57.0902C186.68 57.0902 186.851 57.0522 186.996 56.9762C187.141 56.9001 187.254 56.7924 187.333 56.6529C187.411 56.5123 187.45 56.3475 187.45 56.1586L187.61 56.1833H186.552V55.6319H188.133V56.0996C188.133 56.433 188.062 56.7214 187.92 56.9648C187.778 57.2081 187.583 57.3957 187.334 57.5275C187.085 57.6581 186.8 57.7234 186.479 57.7234C186.12 57.7234 185.805 57.6429 185.533 57.4819C185.263 57.3197 185.052 57.0896 184.9 56.7918C184.749 56.4926 184.673 56.1377 184.673 55.727C184.673 55.4126 184.718 55.1319 184.806 54.8847C184.897 54.6376 185.022 54.4278 185.184 54.2554C185.344 54.0818 185.533 53.9499 185.75 53.86C185.967 53.7687 186.203 53.7231 186.457 53.7231C186.673 53.7231 186.874 53.7547 187.06 53.8182C187.247 53.8803 187.412 53.969 187.557 54.0843C187.703 54.1997 187.822 54.3366 187.916 54.495C188.01 54.6535 188.072 54.8284 188.101 55.0197H187.382ZM188.976 57.6701V53.7763H190.436C190.735 53.7763 190.986 53.8283 191.189 53.9322C191.393 54.0361 191.548 54.1819 191.651 54.3695C191.757 54.5559 191.81 54.7732 191.81 55.0217C191.81 55.2714 191.756 55.4881 191.65 55.6719C191.544 55.8544 191.389 55.9957 191.184 56.0959C190.978 56.1947 190.726 56.2442 190.427 56.2442H189.387V55.6585H190.332C190.507 55.6585 190.65 55.6345 190.761 55.5863C190.873 55.5369 190.956 55.4653 191.009 55.3715C191.064 55.2764 191.09 55.1598 191.09 55.0217C191.09 54.8835 191.064 54.7656 191.009 54.668C190.954 54.5692 190.871 54.4944 190.76 54.4437C190.648 54.3917 190.504 54.3657 190.328 54.3657H189.681V57.6701H188.976ZM190.988 55.9058L191.952 57.6701H191.165L190.218 55.9058H190.988ZM193.119 57.6701H192.367L193.738 53.7763H194.609L195.982 57.6701H195.229L194.188 54.5748H194.158L193.119 57.6701ZM193.145 56.1434H195.198V56.71H193.145V56.1434ZM197.975 57.6701H196.655V53.7763H198.002C198.388 53.7763 198.721 53.8543 198.999 54.0101C199.277 54.1648 199.491 54.3873 199.641 54.6775C199.791 54.9678 199.866 55.3151 199.866 55.7194C199.866 56.125 199.791 56.4736 199.639 56.7651C199.49 57.0566 199.273 57.2803 198.991 57.4362C198.71 57.5922 198.371 57.6701 197.975 57.6701ZM197.361 57.0598H197.941C198.212 57.0598 198.439 57.0104 198.62 56.9115C198.801 56.8113 198.938 56.6624 199.029 56.4647C199.12 56.2657 199.166 56.0173 199.166 55.7194C199.166 55.4215 199.12 55.1744 199.029 54.9779C198.938 54.7802 198.803 54.6325 198.624 54.5349C198.446 54.4361 198.226 54.3866 197.962 54.3866H197.361V57.0598ZM200.696 57.6701V53.7763H203.229V54.3676H201.403V55.4247H203.099V56.016H201.403V57.0788H203.245V57.6701H200.696ZM206.227 54.8467C206.209 54.6807 206.134 54.5514 206.003 54.4589C205.872 54.3663 205.702 54.3201 205.492 54.3201C205.346 54.3201 205.219 54.3422 205.115 54.3866C205.009 54.431 204.929 54.4912 204.873 54.5673C204.817 54.6433 204.789 54.7301 204.787 54.8277C204.787 54.9088 204.805 54.9792 204.842 55.0388C204.88 55.0983 204.932 55.149 204.997 55.1908C205.061 55.2315 205.133 55.2656 205.212 55.2936C205.29 55.3214 205.369 55.3449 205.449 55.3638L205.815 55.4551C205.961 55.4894 206.103 55.5356 206.238 55.5939C206.375 55.6522 206.498 55.7258 206.606 55.8145C206.714 55.9032 206.801 56.0103 206.864 56.1358C206.928 56.2613 206.959 56.4083 206.959 56.5769C206.959 56.8051 206.901 57.0059 206.784 57.1796C206.668 57.3519 206.499 57.4869 206.278 57.5845C206.059 57.6809 205.793 57.7291 205.482 57.7291C205.179 57.7291 204.916 57.6821 204.692 57.5884C204.47 57.4946 204.297 57.3577 204.171 57.1777C204.047 56.9977 203.98 56.7785 203.969 56.5199H204.664C204.674 56.6555 204.716 56.7683 204.789 56.8583C204.863 56.9482 204.958 57.0155 205.076 57.0598C205.196 57.1042 205.329 57.1264 205.476 57.1264C205.629 57.1264 205.763 57.1035 205.879 57.0579C205.996 57.011 206.087 56.9463 206.153 56.864C206.219 56.7803 206.252 56.6827 206.254 56.5712C206.252 56.4698 206.222 56.3862 206.164 56.3202C206.106 56.2531 206.024 56.1972 205.919 56.1529C205.815 56.1073 205.693 56.0667 205.554 56.0312L205.111 55.9171C204.79 55.8348 204.536 55.7099 204.35 55.5426C204.165 55.374 204.073 55.1503 204.073 54.8714C204.073 54.6421 204.135 54.4411 204.258 54.2687C204.384 54.0963 204.555 53.9626 204.77 53.8676C204.986 53.7713 205.23 53.7231 205.502 53.7231C205.779 53.7231 206.021 53.7713 206.228 53.8676C206.438 53.9626 206.603 54.0951 206.721 54.2649C206.84 54.4335 206.902 54.6274 206.906 54.8467H206.227Z" fill="black"/>
</g>
<defs>
<clipPath id="clip0_212_334">
<rect width="211" height="76.868" fill="white"/>
</clipPath>
</defs>
</svg>
